<?xml version="1.0" encoding="iso-8859-1"?>
<!-- Generator: Adobe Illustrator 19.0.0, SVG Export Plug-In . SVG Version: 6.00 Build 0)  -->
<svg version="1.1" id="Layer_1" xmlns="http://www.w3.org/2000/svg" xmlns:xlink="http://www.w3.org/1999/xlink" x="0px" y="0px"
	 viewBox="0 0 480.4 480.4" style="enable-background:new 0 0 480.4 480.4;" xml:space="preserve">
<path style="fill:#8CAFA8;" d="M57.883,457.6c0,7.2-5.6,13.6-13.6,13.6l0,0c-7.2,0-12.8-5.6-12.8-13.6V122.4
	c0-7.2,5.6-12.8,12.8-12.8l0,0c7.2,0,13.6,5.6,13.6,12.8V457.6z"/>
<path style="fill:#749690;" d="M45.083,109.6c-7.2,0-12.8,5.6-12.8,12.8v98.4h26.4v-98.4C57.883,115.2,52.283,109.6,45.083,109.6z"
	/>
<circle style="fill:#87AFA7;" cx="45.083" cy="443.2" r="36.8"/>
<g>
	<path style="fill:#749690;" d="M70.683,417.6c14.4,14.4,14.4,37.6,0,52s-37.6,14.4-52,0"/>
	<path style="fill:#749690;" d="M466.683,468.8c0,6.4-4.8,11.2-11.2,11.2h-352c-6.4,0-11.2-4.8-11.2-11.2v-30.4
		c0-6.4,4.8-11.2,11.2-11.2h352c6.4,0,11.2,4.8,11.2,11.2V468.8z"/>
</g>
<path style="fill:#5E7A75;" d="M455.483,427.2c6.4,0,11.2,4.8,11.2,11.2v30.4c0,6.4-4.8,11.2-11.2,11.2h-352
	c-6.4,0-11.2-4.8-11.2-11.2"/>
<path style="fill:#5C6D6A;" d="M457.083,412.8c-3.2,5.6-9.6,8-15.2,4.8L129.083,256c-5.6-3.2-8-9.6-4.8-15.2l13.6-27.2
	c3.2-5.6,9.6-8,15.2-4.8l312.8,161.6c5.6,3.2,8,9.6,4.8,15.2L457.083,412.8z"/>
<path style="fill:#354441;" d="M465.883,370.4c5.6,3.2,8,9.6,4.8,15.2l-13.6,27.2c-3.2,5.6-9.6,8-15.2,4.8L129.083,256
	c-5.6-3.2-8-9.6-4.8-15.2"/>
<g>
	<path style="fill:#95BAB3;" d="M173.083,395.2c0,3.2-2.4,5.6-5.6,5.6h-48c-3.2,0-5.6-2.4-5.6-5.6l0,0c0-3.2,2.4-5.6,5.6-5.6h48
		C170.683,389.6,173.083,392,173.083,395.2L173.083,395.2z"/>
	<path style="fill:#95BAB3;" d="M173.083,372.8c0,3.2-2.4,5.6-5.6,5.6h-48c-3.2,0-5.6-2.4-5.6-5.6l0,0c0-3.2,2.4-5.6,5.6-5.6h48
		C170.683,367.2,173.083,369.6,173.083,372.8L173.083,372.8z"/>
	<path style="fill:#95BAB3;" d="M173.083,349.6c0,3.2-2.4,5.6-5.6,5.6h-48c-3.2,0-5.6-2.4-5.6-5.6l0,0c0-3.2,2.4-5.6,5.6-5.6h48
		C170.683,344,173.083,346.4,173.083,349.6L173.083,349.6z"/>
	<path style="fill:#95BAB3;" d="M173.083,326.4c0,3.2-2.4,5.6-5.6,5.6h-48c-3.2,0-5.6-2.4-5.6-5.6l0,0c0-3.2,2.4-5.6,5.6-5.6h48
		C170.683,320.8,173.083,324,173.083,326.4L173.083,326.4z"/>
	<path style="fill:#95BAB3;" d="M173.083,304c0,3.2-2.4,5.6-5.6,5.6h-48c-3.2,0-5.6-2.4-5.6-5.6l0,0c0-3.2,2.4-5.6,5.6-5.6h48
		C170.683,298.4,173.083,300.8,173.083,304L173.083,304z"/>
</g>
<path style="fill:#6E7F7C;" d="M79.483,105.6c0,12.8-10.4,23.2-23.2,23.2h-22.4c-12.8,0-23.2-10.4-23.2-23.2V24
	c0-13.6,10.4-24,23.2-24h21.6c12.8,0,23.2,10.4,23.2,23.2v82.4H79.483z"/>
<path style="fill:#5C6D6A;" d="M33.883,0h21.6c12.8,0,23.2,10.4,23.2,23.2v82.4c0,12.8-10.4,23.2-23.2,23.2h-21.6"/>
<g>
	<circle style="fill:#354441;" cx="143.483" cy="286.4" r="4"/>
	<circle style="fill:#354441;" cx="143.483" cy="412.8" r="4"/>
</g>
<g>
</g>
<g>
</g>
<g>
</g>
<g>
</g>
<g>
</g>
<g>
</g>
<g>
</g>
<g>
</g>
<g>
</g>
<g>
</g>
<g>
</g>
<g>
</g>
<g>
</g>
<g>
</g>
<g>
</g>
</svg>
