<?xml version="1.0" encoding="iso-8859-1"?>
<!-- Generator: Adobe Illustrator 19.0.0, SVG Export Plug-In . SVG Version: 6.00 Build 0)  -->
<svg version="1.1" id="Layer_1" xmlns="http://www.w3.org/2000/svg" xmlns:xlink="http://www.w3.org/1999/xlink" x="0px" y="0px"
	 viewBox="0 0 511.999 511.999" style="enable-background:new 0 0 511.999 511.999;" xml:space="preserve">
<g>
	<path style="fill:#7E8488;" d="M435.273,380.716c13.29,13.29,13.29,34.886,0,48.176c-13.29,13.29-34.886,13.29-48.176,0
		c-13.29-13.29-13.29-34.886,0-48.176C400.387,367.426,421.984,367.426,435.273,380.716z"/>
	<path style="fill:#7E8488;" d="M123.79,380.716c13.29,13.29,13.29,34.886,0,48.176c-13.29,13.29-34.886,13.29-48.176,0
		s-13.29-34.886,0-48.176C88.904,367.426,110.5,367.426,123.79,380.716z"/>
</g>
<path style="fill:#969DA2;" d="M475.42,341.676c35.025,35.163,35.025,92.061,0,127.224c-35.163,35.163-92.199,35.163-127.362,0
	c-26.441-26.442-32.948-65.204-19.52-97.875l-72.541-72.541l-72.541,72.541c13.428,32.671,6.922,71.434-19.52,97.875
	c-35.163,35.163-92.199,35.163-127.362,0c-35.025-35.163-35.025-92.061,0-127.224c26.58-26.441,65.342-32.948,97.875-19.52
	l72.541-72.541L83.782,126.268c-39.178-39.039-4.845-102.72-4.845-102.72l177.061,177.061L433.059,23.548
	c0,0,34.332,63.681-4.845,102.72L305.004,249.616l72.541,72.541C410.078,308.728,448.84,315.235,475.42,341.676z M435.273,428.892
	c13.29-13.29,13.29-34.886,0-48.176c-13.29-13.29-34.886-13.29-48.176,0c-13.29,13.29-13.29,34.886,0,48.176
	C400.387,442.182,421.984,442.182,435.273,428.892z M123.79,428.892c13.29-13.29,13.29-34.886,0-48.176
	c-13.29-13.29-34.886-13.29-48.176,0s-13.29,34.886,0,48.176C88.904,442.182,110.5,442.182,123.79,428.892z"/>
<g>
	<path style="fill:#AFB6BB;" d="M75.614,380.716c-13.29,13.29-13.29,34.886,0,48.176c13.29,13.29,34.886,13.29,48.176,0
		s13.29-34.886,0-48.176C110.5,367.426,88.904,367.426,75.614,380.716z"/>
	<path style="fill:#AFB6BB;" d="M387.097,380.716c-13.29,13.29-13.29,34.886,0,48.176c13.29,13.29,34.886,13.29,48.176,0
		c13.29-13.29,13.29-34.886,0-48.176C421.984,367.426,400.387,367.426,387.097,380.716z"/>
	<path style="fill:#AFB6BB;" d="M78.936,23.548c0,0-34.332,63.681,4.845,102.72l123.209,123.347l-72.541,72.541
		c-32.533-13.428-71.295-6.922-97.875,19.52c-35.025,35.163-35.025,92.061,0,127.224c35.163,35.163,92.199,35.163,127.361,0
		c26.441-26.442,32.948-65.204,19.52-97.875l72.541-72.541v-97.875L78.936,23.548z M123.79,428.892
		c-13.29,13.29-34.886,13.29-48.176,0s-13.29-34.886,0-48.176c13.29-13.29,34.886-13.29,48.176,0
		C137.08,394.006,137.08,415.602,123.79,428.892z"/>
</g>
<path style="fill:#FFFFFF;" d="M411.185,449.242c-11.879,0-23.042-4.62-31.429-13.009c-17.33-17.33-17.33-45.529,0-62.859
	c8.389-8.389,19.551-13.009,31.429-13.009c11.879,0,23.041,4.62,31.431,13.009c8.389,8.389,13.009,19.55,13.009,31.429
	c0,11.879-4.62,23.041-13.009,31.429C434.227,444.622,423.065,449.242,411.185,449.242z M411.185,381.132
	c-6.065,0-12.13,2.309-16.747,6.925c-9.232,9.234-9.232,24.258,0,33.492c9.235,9.234,24.26,9.232,33.493,0
	c9.234-9.234,9.234-24.258,0-33.492C423.315,383.44,417.25,381.132,411.185,381.132z"/>
<path d="M411.739,505.655c-26.832,0-52.055-10.446-71.022-29.414c-27.033-27.031-36.185-66.63-24.227-102.581l-60.493-60.493
	l-60.493,60.493c11.962,35.954,2.808,75.548-24.225,102.581c-18.967,18.967-44.191,29.414-71.022,29.414
	s-52.055-10.446-71.022-29.414c-38.977-39.131-38.977-102.777-0.015-141.893c27.189-27.048,66.778-36.196,102.601-24.246
	l60.492-60.491L76.436,133.605c-18.515-18.45-25.434-44.441-19.992-75.149c3.932-22.19,12.97-39.126,13.354-39.835l6.617-12.277
	l179.582,179.582L435.579,6.344l6.619,12.277c1.552,2.878,37.5,71.003-6.656,115.001l-115.858,115.99l60.491,60.492
	c35.825-11.95,75.411-2.805,102.568,24.213l0.035,0.033c38.962,39.115,38.962,102.762,0,141.879
	C463.794,495.209,438.571,505.655,411.739,505.655z M255.997,283.801l84.773,84.773l-2.629,6.397
	c-12.268,29.848-5.495,63.835,17.258,86.586c15.045,15.045,35.054,23.331,56.34,23.331s41.294-8.285,56.34-23.331
	c30.892-31.015,30.901-81.499,0.004-112.536c-22.884-22.754-56.866-29.533-86.577-17.269l-6.404,2.644l-84.777-84.778
	l130.542-130.689c23.446-23.363,15.563-58.344,8.721-77.23l-173.59,173.59L82.435,41.73c-6.804,18.92-14.647,53.943,8.676,77.183
	l130.56,130.707l-84.777,84.777l-6.404-2.643c-29.718-12.268-63.707-5.482-86.591,17.283c-30.88,31.002-30.88,81.501,0.033,112.536
	c15.032,15.031,35.04,23.317,56.326,23.317s41.294-8.285,56.34-23.331c22.751-22.751,29.526-56.738,17.258-86.585l-2.629-6.397
	L255.997,283.801z"/>
<path style="fill:#FFFFFF;" d="M99.702,449.242c-11.879,0-23.04-4.62-31.429-13.009c-17.33-17.33-17.33-45.529,0-62.859l0,0
	c8.389-8.389,19.551-13.009,31.429-13.009c11.879,0,23.041,4.62,31.431,13.009c8.389,8.389,13.009,19.55,13.009,31.429
	c0,11.879-4.62,23.041-13.009,31.429C122.743,444.622,111.581,449.242,99.702,449.242z M82.955,388.057
	c-9.232,9.234-9.232,24.258,0,33.492c9.235,9.234,24.26,9.232,33.493,0c9.234-9.234,9.234-24.258,0-33.492
	C107.215,378.825,92.189,378.823,82.955,388.057L82.955,388.057z"/>
<g>
</g>
<g>
</g>
<g>
</g>
<g>
</g>
<g>
</g>
<g>
</g>
<g>
</g>
<g>
</g>
<g>
</g>
<g>
</g>
<g>
</g>
<g>
</g>
<g>
</g>
<g>
</g>
<g>
</g>
</svg>
